<?xml version="1.0" standalone="no"?>
<!DOCTYPE svg PUBLIC "-//W3C//DTD SVG 20010904//EN"
 "http://www.w3.org/TR/2001/REC-SVG-20010904/DTD/svg10.dtd">
<svg version="1.0" xmlns="http://www.w3.org/2000/svg"
 width="300.000000pt" height="300.000000pt" viewBox="0 0 300.000000 300.000000"
 preserveAspectRatio="xMidYMid meet">
<metadata>
Created by potrace 1.14, written by Peter Selinger 2001-2017
</metadata>
<g transform="translate(0.000000,300.000000) scale(0.100000,-0.100000)"
fill="#000000" stroke="none">
<path d="M0 1880 c0 -1116 0 -1121 20 -1110 11 6 42 33 69 61 l48 51 -5 68 -5
68 55 7 c80 10 103 5 103 -24 0 -30 -21 -39 -28 -11 -4 17 -13 20 -56 20 -54
0 -59 -5 -44 -58 5 -20 11 -23 37 -19 17 2 40 8 50 12 13 6 17 5 12 -3 -12
-20 22 -93 56 -120 18 -15 52 -46 76 -69 41 -43 42 -44 42 -114 l0 -71 33 7
c72 15 101 38 120 96 28 88 27 86 37 68 5 -9 17 -51 26 -95 13 -63 17 -129 16
-319 -1 -132 1 -259 5 -282 l6 -43 138 0 c77 0 139 2 139 5 0 3 -22 35 -50 71
-50 65 -61 94 -37 94 34 -1 55 -14 66 -46 14 -38 38 -67 51 -59 14 8 0 41 -30
72 -29 29 -50 83 -33 83 13 0 113 -117 113 -132 0 -7 17 -30 39 -50 l38 -38
316 0 316 0 40 68 c21 37 55 112 74 167 19 55 48 132 65 170 16 39 39 102 52
140 25 77 35 93 43 73 13 -35 -105 -394 -201 -610 -2 -5 61 -8 140 -8 l143 0
5 73 c7 114 4 234 -9 337 -25 198 -25 212 -1 252 12 21 26 38 30 38 20 0 49
-60 65 -133 9 -42 22 -80 28 -84 7 -4 8 0 3 13 -4 10 -15 57 -24 103 l-16 83
24 19 c14 11 36 28 48 39 13 11 28 20 32 20 18 0 53 -47 83 -110 25 -54 31
-61 35 -41 11 67 -20 121 -102 177 l-51 36 55 -7 c87 -11 134 -44 175 -123 37
-72 48 -66 14 8 -12 25 -21 58 -21 73 1 20 -3 27 -13 23 -7 -2 -20 6 -29 19
-9 13 -26 25 -38 27 -13 2 -24 11 -26 21 -3 13 3 17 23 17 20 0 47 -20 106
-80 44 -44 86 -80 95 -80 8 0 22 -16 31 -35 18 -37 40 -49 139 -70 34 -8 81
-23 105 -35 24 -12 65 -30 92 -41 l47 -19 0 1240 0 1240 -1500 0 -1500 0 0
-1120z m377 244 c-3 -3 -12 -4 -19 -1 -8 3 -5 6 6 6 11 1 17 -2 13 -5z m-184
-11 c-7 -2 -19 -2 -25 0 -7 3 -2 5 12 5 14 0 19 -2 13 -5z m177 -18 c0 -8 -4
-15 -10 -15 -5 0 -10 7 -10 15 0 8 5 15 10 15 6 0 10 -7 10 -15z m-131 -45
c20 -31 30 -57 27 -67 -5 -13 -15 -5 -42 35 -19 29 -37 52 -40 52 -3 0 -4 -28
-2 -62 2 -42 -1 -63 -9 -65 -10 -4 -13 16 -13 76 0 78 1 81 23 81 17 0 32 -14
56 -50z m1607 -195 c-6 -22 -3 -25 23 -25 41 0 59 -32 33 -58 -19 -19 -104
-38 -121 -27 -5 3 -16 -3 -23 -12 -16 -23 -64 -28 -71 -9 -3 8 -3 24 0 35 4
18 13 21 55 21 49 0 50 0 44 28 -7 30 0 43 29 60 31 17 38 14 31 -13z m-185
-65 c20 -11 26 -40 8 -40 -23 0 -48 21 -43 35 7 18 10 18 35 5z m1033 -66 c71
-19 93 -37 101 -79 9 -51 -21 -78 -94 -83 -76 -6 -107 2 -137 35 -44 48 -28
106 36 132 33 13 25 13 94 -5z m-636 -91 c14 -36 14 -100 2 -139 -21 -64 -133
-132 -161 -98 -12 14 -3 31 68 138 18 26 33 54 33 62 0 23 23 64 35 64 7 0 17
-12 23 -27z m-535 -240 c16 -18 37 -33 46 -33 10 0 28 -11 41 -25 36 -38 83
-43 129 -12 22 14 47 26 57 27 49 1 122 9 152 15 17 4 32 5 32 2 0 -2 -16 -35
-35 -73 -19 -37 -35 -74 -35 -80 0 -7 -9 -15 -19 -19 -24 -7 -111 2 -147 15
-42 16 -46 13 -39 -30 7 -42 -5 -70 -30 -70 -7 0 -36 -16 -64 -35 -42 -27 -58
-33 -84 -29 -70 13 -104 61 -74 105 11 15 13 29 6 52 -5 18 -9 67 -9 109 0 42
-5 80 -10 83 -7 4 -7 12 0 25 14 25 46 15 83 -27z m1023 -77 c-52 -116 -90
-195 -93 -192 -7 7 102 246 112 246 3 0 -6 -24 -19 -54z m-760 -227 c36 -22
64 -55 64 -75 0 -7 -18 -15 -40 -19 -22 -4 -47 -13 -54 -20 -12 -12 -14 -4
-18 48 -5 60 -2 87 9 87 3 0 21 -9 39 -21z m645 -26 c-12 -20 -14 -14 -5 12 4
9 9 14 11 11 3 -2 0 -13 -6 -23z m-1977 -34 c-3 -5 -29 -9 -59 -9 -41 0 -56
-4 -64 -17 -9 -17 -10 -17 -17 0 -10 27 5 35 66 39 62 3 82 0 74 -13z m63 15
c-3 -3 -12 -4 -19 -1 -8 3 -5 6 6 6 11 1 17 -2 13 -5z m1223 -124 c0 -11 -7
-20 -15 -20 -13 0 -13 3 -3 20 7 11 14 20 15 20 2 0 3 -9 3 -20z m425 10 c7
-12 -2 -12 -30 0 -19 8 -19 9 2 9 12 1 25 -3 28 -9z m100 -20 c-3 -5 -12 -10
-20 -10 -8 0 -17 5 -20 10 -4 6 5 10 20 10 15 0 24 -4 20 -10z m70 -9 c10 -17
-15 -23 -31 -7 -14 15 -14 16 5 16 11 0 22 -4 26 -9z m-1665 -236 c0 -8 -2
-15 -4 -15 -2 0 -6 7 -10 15 -3 8 -1 15 4 15 6 0 10 -7 10 -15z m230 -356 c16
-37 7 -48 -20 -24 -24 21 -30 85 -6 66 8 -6 19 -25 26 -42z"/>
<path d="M1905 1320 c3 -5 8 -10 11 -10 2 0 4 5 4 10 0 6 -5 10 -11 10 -5 0
-7 -4 -4 -10z"/>
<path d="M2981 322 c-17 -31 -13 -40 5 -14 9 13 14 26 11 29 -3 2 -10 -4 -16
-15z"/>
</g>
</svg>
